PathFileType	4	(X/Y/Z)	 s05c0303.trc
DataRate	CameraRate	NumFrames	NumMarkers	Units	OrigDataRate	OrigDataStartFrame	OrigNumFrames
200	200	6	48	mm	200	1501	2000
Frame#	Time	racr			lacr			c7			jug			rlel			rdr			llel			ldr			s2			lic			ric			lasi			rasi			rpsi			lpsi			rgt			lgt			rth1			rth2			rth3			rth4			rlfc			rsh1			rsh2			rsh3			rsh4			rlmal			rcal			rtoe			rmt5			rmt1			lth1			lth2			lth4			lth3			llfc			lmfc			lsh1			lsh2			lsh3			lsh4			llmal			lcal			ltoe			lmt5			SBIKE			LBIKE			RBIKE			
		X1	Y1	Z1	X2	Y2	Z2	X3	Y3	Z3	X4	Y4	Z4	X5	Y5	Z5	X6	Y6	Z6	X7	Y7	Z7	X8	Y8	Z8	X9	Y9	Z9	X10	Y10	Z10	X11	Y11	Z11	X12	Y12	Z12	X13	Y13	Z13	X14	Y14	Z14	X15	Y15	Z15	X16	Y16	Z16	X17	Y17	Z17	X18	Y18	Z18	X19	Y19	Z19	X20	Y20	Z20	X21	Y21	Z21	X22	Y22	Z22	X23	Y23	Z23	X24	Y24	Z24	X25	Y25	Z25	X26	Y26	Z26	X27	Y27	Z27	X28	Y28	Z28	X29	Y29	Z29	X30	Y30	Z30	X31	Y31	Z31	X32	Y32	Z32	X33	Y33	Z33	X34	Y34	Z34	X35	Y35	Z35	X36	Y36	Z36	X37	Y37	Z37	X38	Y38	Z38	X39	Y39	Z39	X40	Y40	Z40	X41	Y41	Z41	X42	Y42	Z42	X43	Y43	Z43	X44	Y44	Z44	X45	Y45	Z45	X46	Y46	Z46	X47	Y47	Z47	X48	Y48	Z48	
1501	7.5050	745.406751	1234.593292	-109.339336	753.511669	1272.668380	-392.136626	749.749393	1336.279521	-254.842523	672.302155	1184.908468	-261.700630	543.833744	1087.573596	36.446616	679.152940	934.036325	-56.718051	554.121527	1108.880041	-557.271815	690.017484	920.113792	-461.152566	156.267656	1282.259772	-320.660658	319.292115	1248.580550	-434.291587	274.316785	1275.769537	-154.416074	341.191077	1185.379508	-390.942945	305.535342	1207.148268	-173.149169	194.009062	1324.089294	-274.611216	214.036283	1316.532143	-356.445878	193.848963	1164.042650	-133.245671	245.797643	1162.824606	-470.359666	266.045183	1063.507300	-105.020976	333.872155	1006.792610	-90.099639	363.513226	924.362471	-88.941747	363.416914	1028.119480	-94.088435	450.872171	797.915174	-97.090229	380.819308	709.009143	-80.518345	369.114041	621.407708	-92.263545	318.797380	552.741095	-102.203059	400.310786	612.098295	-112.985661	271.647434	430.000351	-115.029362	202.307991	407.356136	-165.672557	487.498183	333.127790	-140.287150	379.810402	329.596308	-82.268289	NaN	NaN	NaN	316.061318	1037.293544	-461.486178	372.977723	976.767286	-442.004621	400.786111	992.631751	-422.495269	393.948345	888.708771	-436.752824	428.222808	746.663895	-401.399504	389.401155	741.744998	-297.657997	329.482875	666.456566	-439.045095	280.316858	594.789438	-432.832812	200.681159	555.630415	-444.016769	295.693679	576.297663	-402.266257	116.240316	475.039477	-446.217129	53.763398	509.845356	-406.989044	129.809616	224.489938	-384.651681	74.907059	313.304707	-456.611656	-167.064831	901.571263	-268.041641	-43.355639	85.283462	-474.165310	-51.453039	80.326822	-76.606440	
1502	7.5100	747.250273	1233.495323	-110.815250	754.430495	1275.717527	-394.624351	750.166233	1336.892574	-255.433263	674.086309	1185.528418	-263.967742	545.686230	1087.786693	37.087551	679.434395	934.018688	-57.053077	554.229087	1109.560985	-556.795610	689.428715	919.470394	-461.280577	156.150000	1280.680208	-318.738817	318.629850	1249.188676	-432.965792	275.433578	1272.411523	-152.460178	340.677131	1185.522951	-390.333325	306.555976	1203.991729	-172.195357	194.045937	1321.986377	-271.824220	213.581370	1316.154474	-354.535285	194.213845	1159.879244	-132.264778	245.712321	1163.008061	-469.572342	264.967201	1057.840625	-105.223573	331.226994	999.166799	-91.112232	358.884898	915.995426	-91.142342	361.481362	1019.581918	-94.805985	444.259491	789.029473	-100.063334	374.908153	699.849190	-82.665017	364.506588	611.927406	-93.966658	315.313469	542.551204	-103.172365	395.877023	603.182209	-114.523240	270.207208	417.936321	-115.496805	200.550927	394.943527	-165.279341	486.922238	322.087256	-140.863451	379.303836	318.625053	-82.596053	NaN	NaN	NaN	317.415765	1037.779026	-461.962211	375.234835	978.207013	-442.346662	402.658747	994.469176	-422.634043	397.757269	890.507919	-437.549276	434.249638	749.087835	-401.435558	396.517626	743.481042	-298.110062	334.156999	671.574238	-439.103924	283.438548	601.166077	-432.811075	203.296911	563.374176	-443.744945	298.776376	581.861587	-402.418510	116.788652	485.467636	-446.469269	54.446425	520.647874	-407.184617	129.864577	235.311113	-384.694324	74.959872	324.019718	-456.699735	-167.033634	901.549662	-268.350615	-43.382741	85.232306	-474.216496	-51.501393	80.372281	-76.641019	
1503	7.5150	749.304617	1232.496712	-112.342372	754.434815	1278.453777	-396.235938	750.554989	1337.581019	-256.076945	675.861739	1186.179901	-266.180324	549.020101	1087.548301	36.254240	679.788091	934.054916	-57.294802	554.349234	1110.184238	-556.327587	689.187441	919.476673	-461.730062	156.094404	1278.958888	-316.113713	317.816549	1249.730389	-431.449177	276.709101	1269.022520	-150.437881	340.012565	1185.765200	-389.559638	307.803300	1200.608847	-171.128382	194.608136	1318.556501	-269.693683	213.494640	1316.413807	-353.677133	194.866152	1155.720131	-131.281202	245.341416	1163.139976	-468.634925	264.129242	1051.944270	-105.489196	328.489111	991.476226	-92.192700	354.135521	907.485273	-93.527863	359.894523	1010.829300	-95.957176	437.597527	779.879054	-103.626614	368.633887	690.536640	-84.615022	359.692587	602.442664	-95.689080	311.574681	532.390756	-104.077265	391.136609	594.142956	-116.338754	268.282045	406.209148	-115.789055	198.680789	382.657774	-165.262382	485.923664	312.266742	-140.520755	378.224404	307.702235	-82.898593	NaN	NaN	NaN	318.479761	1037.960376	-462.816153	377.281737	979.384792	-442.989997	404.237972	996.043288	-423.005737	401.391381	892.215798	-438.633031	440.275669	751.817177	-401.655673	402.986764	745.971301	-298.263184	338.740081	677.107508	-439.368258	286.584778	607.564878	-433.069817	205.539978	571.516922	-443.513017	301.864393	587.970031	-403.018427	117.390401	496.058917	-446.688360	55.074103	531.321721	-407.345290	130.699754	246.111625	-384.631221	75.656984	334.779353	-456.782959	-166.970070	901.366650	-268.831308	-43.380646	85.192039	-474.215630	-51.495226	80.358615	-76.654741	
1504	7.5200	751.536544	1232.091821	-111.728369	754.327001	1280.953495	-397.808220	750.828073	1338.281759	-256.404937	677.534500	1186.800898	-268.344882	551.224838	1088.213782	37.072216	680.255643	934.125119	-57.393263	554.499280	1110.757164	-555.397687	688.958348	919.355257	-461.485398	156.144236	1277.200976	-313.155731	316.924822	1250.116496	-429.861209	278.289183	1265.434778	-148.401281	339.318712	1185.994014	-388.797985	309.336146	1197.372961	-169.842202	194.565986	1316.180057	-266.276975	212.664891	1315.054295	-350.662377	195.754631	1151.369809	-130.217879	244.650888	1163.281722	-467.723816	263.253094	1045.838550	-105.748666	325.947997	983.634390	-93.235217	349.367396	898.897396	-96.103011	358.023446	1002.045634	-97.051937	430.878111	771.038558	-106.926434	362.487776	681.048605	-86.583698	354.728905	592.990590	-97.520450	307.628874	522.017308	-104.989892	386.177421	584.896622	-118.271298	265.908284	394.637344	-115.994275	196.401690	370.636654	-165.155643	484.014760	300.998702	-141.573412	376.509586	296.789968	-83.079150	NaN	NaN	NaN	319.261205	1037.957818	-463.820570	379.140807	980.431212	-443.924027	405.582508	997.522485	-423.533352	404.923313	893.789614	-439.957289	446.181228	755.145555	-402.368540	409.703320	748.529435	-298.494239	343.006527	683.071907	-439.430428	289.720429	614.584789	-433.559568	207.946723	580.117698	-443.666530	304.915317	594.185966	-403.926617	118.345123	506.783847	-446.776302	55.915990	542.023553	-407.521316	132.401804	257.161859	-384.587588	77.003933	345.584967	-456.839343	-167.119341	901.344616	-268.951939	-43.389771	85.163563	-474.231673	-51.442862	80.257144	-76.685813	
1505	7.5250	753.738796	1231.212850	-114.026384	754.038149	1283.347195	-399.357729	751.224061	1338.937002	-257.264761	679.101123	1187.307158	-270.544410	553.698810	1088.904967	37.935705	680.849926	934.226498	-57.426688	554.483645	1111.220205	-554.881752	688.963215	919.265816	-461.519427	156.125964	1275.328476	-309.765543	315.909710	1250.598249	-428.209733	280.035919	1261.773186	-146.297383	338.527568	1186.040144	-387.886870	311.204243	1193.915401	-168.410478	194.571891	1313.404997	-262.502243	211.929257	1313.745453	-347.296629	196.953562	1146.938681	-129.063990	243.781914	1163.277778	-466.414572	262.652691	1039.680028	-105.948296	323.620724	975.589130	-94.557208	344.608780	890.241469	-98.686212	356.197341	993.212151	-98.140473	423.910815	761.960636	-110.604148	356.307693	671.480476	-88.443436	349.597215	583.227225	-99.240860	303.604972	511.671324	-106.096627	380.970545	575.622602	-120.286215	263.163592	383.477823	-116.170303	193.670694	359.305804	-165.041578	481.692562	290.402766	-141.793854	374.185191	286.100072	-83.321235	NaN	NaN	NaN	319.829874	1037.902730	-464.767796	380.762840	981.592968	-444.857700	406.694590	999.048787	-424.100739	408.464184	895.425463	-441.430725	452.245873	758.258814	-402.602382	415.410818	751.211903	-298.754959	347.437382	689.255531	-439.795285	292.668263	621.650861	-433.858407	210.299372	588.965618	-443.741368	308.238277	600.320512	-405.603796	120.140982	517.652027	-447.204247	57.068027	552.674430	-407.513482	134.868969	268.329570	-384.425887	78.965150	356.376853	-456.765947	-167.214183	901.300927	-269.069429	-43.384397	85.182692	-474.209875	-51.495237	80.327518	-76.664322	
1506	7.5300	755.752203	1230.763658	-116.649126	753.536726	1285.486589	-400.961525	751.649341	1339.423968	-258.338524	680.553606	1187.843653	-272.775871	555.066491	1090.646872	39.676823	681.484324	934.335628	-57.808140	554.370755	1111.547457	-554.368964	688.992456	919.252524	-461.569703	155.777037	1273.617621	-306.128196	314.755548	1250.911986	-426.334154	281.955708	1258.022303	-144.209842	337.644302	1185.945664	-386.908299	312.975479	1190.310539	-167.423266	194.743909	1310.558791	-258.218463	211.216588	1312.548100	-343.866210	198.387771	1142.352938	-127.705180	242.714200	1163.270852	-464.943322	262.252342	1033.512305	-106.117231	321.424076	967.660585	-95.780371	339.747789	881.634803	-101.336784	354.285579	984.299622	-99.474080	416.794337	752.739758	-114.187787	350.535610	661.737293	-90.405689	344.537401	573.455512	-100.921787	299.211914	501.244523	-107.034465	375.541730	566.181726	-122.514815	260.269038	372.633791	-116.527367	190.480472	348.374663	-164.995336	478.824728	279.732662	-142.052074	371.400715	275.636482	-83.590539	NaN	NaN	NaN	320.220592	1037.924631	-465.560976	382.434642	982.760007	-445.798245	407.804666	1000.599087	-424.770585	412.080486	897.329463	-442.887651	458.394754	761.952616	-403.293652	424.556100	754.329141	-298.970882	351.907771	695.680070	-440.233347	295.518374	629.462053	-434.091233	212.842353	598.049714	-443.743100	311.410571	606.993092	-406.580135	121.353176	528.096658	-446.690769	58.577492	563.437220	-407.569273	138.044858	279.341824	-384.239882	81.762212	367.086621	-456.896770	-167.190359	901.535239	-268.796639	-43.395263	85.197336	-474.185372	-51.479398	80.341130	-76.628932	
